<?xml version="1.0" encoding="utf-8"?>
<!-- Generator: Adobe Illustrator 28.1.0, SVG Export Plug-In . SVG Version: 6.00 Build 0)  -->
<svg version="1.1" id="Layer_1" xmlns="http://www.w3.org/2000/svg" xmlns:xlink="http://www.w3.org/1999/xlink" x="0px" y="0px"
	 viewBox="0 0 432 432" style="enable-background:new 0 0 432 432;" xml:space="preserve">
<style type="text/css">
	.st0{fill:none;stroke:#000000;stroke-width:4;stroke-miterlimit:10;}
</style>
<g>
	<polyline class="st0" points="318.5,169.5 365,216 318.5,262.5 	"/>
	<g>
		<circle cx="70" cy="216" r="3.1"/>
		<circle cx="79.8" cy="216" r="3.1"/>
		<circle cx="89.6" cy="216" r="3.1"/>
		<circle cx="99.3" cy="216" r="3.1"/>
		<circle cx="109.1" cy="216" r="3.1"/>
		<circle cx="118.9" cy="216" r="3.1"/>
		<circle cx="128.6" cy="216" r="3.1"/>
		<circle cx="138.4" cy="216" r="3.1"/>
		<circle cx="148.2" cy="216" r="3.1"/>
		<circle cx="157.9" cy="216" r="3.1"/>
		<circle cx="167.7" cy="216" r="3.1"/>
		<circle cx="177.5" cy="216" r="3.1"/>
		<circle cx="187.2" cy="216" r="3.1"/>
		<circle cx="197" cy="216" r="3.1"/>
		<circle cx="206.8" cy="216" r="3.1"/>
		<circle cx="216.5" cy="216" r="3.1"/>
		<circle cx="226.3" cy="216" r="3.1"/>
		<circle cx="236" cy="216" r="3.1"/>
		<circle cx="245.8" cy="216" r="3.1"/>
		<circle cx="255.6" cy="216" r="3.1"/>
		<circle cx="265.3" cy="216" r="3.1"/>
		<circle cx="275.1" cy="216" r="3.1"/>
		<circle cx="284.9" cy="216" r="3.1"/>
		<circle cx="294.6" cy="216" r="3.1"/>
		<circle cx="304.4" cy="216" r="3.1"/>
		<circle cx="314.2" cy="216" r="3.1"/>
		<circle cx="323.9" cy="216" r="3.1"/>
		<circle cx="333.7" cy="216" r="3.1"/>
		<circle cx="343.5" cy="216" r="3.1"/>
		<circle cx="353.2" cy="216" r="3.1"/>
	</g>
</g>
</svg>
