<?xml version="1.0" encoding="utf-8"?>
<!-- Generator: Adobe Illustrator 28.1.0, SVG Export Plug-In . SVG Version: 6.00 Build 0)  -->
<svg version="1.1" id="Layer_1" xmlns="http://www.w3.org/2000/svg" xmlns:xlink="http://www.w3.org/1999/xlink" x="0px" y="0px"
	 viewBox="0 0 216.4 50" style="enable-background:new 0 0 216.4 50;" xml:space="preserve">
<style type="text/css">
	.st0{font-family:'Poppins-SemiBold';}
	.st1{font-size:20.6618px;}
</style>
<text transform="matrix(1 0 0 1 48.4001 33.9023)" class="st0 st1">Basa khuji.com</text>
<path d="M24.2,24.1h-4.8v-6.9h4.8c1.2,0,2.1,0.3,2.8,0.9c0.7,0.6,1,1.5,1,2.5c0,1.1-0.3,1.9-1,2.5C26.3,23.8,25.4,24.1,24.2,24.1z"
	/>
<path d="M27.6,29.2c0.7,0.7,1.1,1.6,1.1,2.7c0,1.1-0.4,2-1.1,2.7c-0.7,0.7-1.7,1-2.9,1h-5.4v-7.3h5.3C25.9,28.2,26.9,28.5,27.6,29.2
	z"/>
<path d="M24.1,6.8c-10.8,0-19.6,8.8-19.6,19.6C4.5,37.2,13.3,46,24.1,46c10.8,0,19.5-8.8,19.5-19.6C43.6,15.6,34.9,6.8,24.1,6.8z
	 M31.7,37.7c-1.6,1.3-3.7,1.9-6.4,1.9H14V13.2h10.7c2.7,0,4.8,0.7,6.4,2c1.5,1.3,2.3,3,2.3,5c0,2.9-1.7,4.9-5.2,5.9
	c1.8,0.2,3.1,1,4.2,2.2s1.6,2.7,1.6,4.3C34.1,34.8,33.3,36.4,31.7,37.7z"/>
</svg>
