<?xml version="1.0" standalone="no"?>
<!DOCTYPE svg PUBLIC "-//W3C//DTD SVG 20010904//EN"
 "http://www.w3.org/TR/2001/REC-SVG-20010904/DTD/svg10.dtd">
<svg version="1.0" xmlns="http://www.w3.org/2000/svg"
 width="542.000000pt" height="208.000000pt" viewBox="0 0 542.000000 208.000000"
 preserveAspectRatio="xMidYMid meet">
<metadata>
Created by potrace 1.16, written by Peter Selinger 2001-2019
</metadata>
<g transform="translate(0.000000,208.000000) scale(0.100000,-0.100000)"
fill="#000000" stroke="none">
<path d="M435 1681 c-169 -49 -312 -170 -387 -327 l-43 -89 0 -180 0 -180 43
-89 c77 -160 229 -286 399 -330 79 -21 237 -21 316 0 209 54 388 233 442 441
19 74 19 242 0 316 -54 208 -233 387 -442 441 -83 22 -249 20 -328 -3z m438
-361 l227 -175 0 -78 0 -78 -57 45 c-291 228 -420 326 -428 326 -8 0 -137 -98
-427 -326 l-58 -45 0 78 0 78 242 187 c204 157 244 185 258 175 9 -7 119 -91
243 -187z m-433 -430 l0 -250 -95 0 -95 0 0 183 1 182 91 68 c51 37 93 67 95
67 2 0 3 -112 3 -250z m291 221 c33 -41 18 -109 -28 -130 -13 -6 -48 -11 -78
-11 l-55 0 0 86 0 86 71 -4 c60 -3 74 -8 90 -27z m204 -73 l44 -33 1 -182 0
-183 -92 0 -93 0 29 19 c93 61 99 201 10 253 l-36 21 26 20 c30 22 56 66 56
97 0 26 3 26 55 -12z m-193 -188 c25 -26 29 -36 24 -63 -10 -55 -46 -77 -127
-77 l-69 0 0 85 0 85 71 0 c65 0 73 -2 101 -30z"/>
<path d="M2870 1040 l0 -220 45 0 45 0 0 70 c0 39 4 70 9 70 4 0 29 -31 55
-70 l46 -70 50 0 50 0 -61 85 -61 85 56 70 57 70 -48 0 c-47 0 -49 -2 -98 -63
l-50 -62 -3 128 -3 127 -44 0 -45 0 0 -220z"/>
<path d="M3190 1040 l0 -220 45 0 45 0 0 109 c0 102 2 111 22 125 30 21 44 20
68 -4 17 -17 20 -33 20 -125 l0 -105 40 0 40 0 0 110 c0 119 -13 170 -48 189
-26 14 -97 14 -123 1 -18 -10 -19 -7 -19 65 l0 75 -45 0 -45 0 0 -220z"/>
<path d="M1460 1035 l0 -215 115 0 c126 0 157 9 194 56 31 39 29 107 -4 139
-13 14 -29 25 -36 25 -6 0 3 13 20 29 24 23 31 37 31 68 0 86 -51 113 -210
113 l-110 0 0 -215z m200 142 c19 -10 25 -20 25 -47 0 -42 -28 -60 -92 -60
l-43 0 0 60 0 60 43 0 c23 0 53 -6 67 -13z m32 -197 c20 -24 17 -53 -8 -79 -7
-8 -40 -17 -74 -19 l-60 -4 0 67 0 67 61 -4 c49 -4 66 -9 81 -28z"/>
<path d="M1873 1109 c-36 -18 -41 -24 -33 -39 16 -30 28 -32 74 -15 53 20 86
9 86 -30 0 -21 -5 -25 -27 -25 -121 0 -194 -90 -128 -155 19 -20 34 -25 73
-25 27 0 57 6 68 15 25 19 34 19 34 0 0 -10 11 -15 35 -15 l35 0 0 98 c0 116
-12 164 -47 192 -35 27 -114 27 -170 -1z"/>
<path d="M2194 1120 c-54 -21 -72 -100 -31 -138 12 -11 44 -29 72 -39 57 -21
70 -47 32 -64 -18 -8 -32 -7 -62 5 -35 15 -40 15 -57 0 -26 -24 -23 -33 17
-50 87 -36 188 -6 201 61 9 51 -14 79 -86 106 -61 22 -72 37 -45 59 12 10 24
10 54 1 51 -15 54 -14 69 9 11 18 9 22 -20 40 -35 21 -105 26 -144 10z"/>
<path d="M2443 1109 c-36 -18 -41 -24 -33 -39 16 -30 28 -32 74 -15 53 20 86
9 86 -30 0 -21 -5 -25 -27 -25 -121 0 -194 -90 -128 -155 19 -20 34 -25 73
-25 27 0 57 6 68 15 25 19 34 19 34 0 0 -10 11 -15 35 -15 l35 0 0 98 c0 116
-12 164 -47 192 -35 27 -114 27 -170 -1z"/>
<path d="M3530 1015 c0 -161 20 -195 112 -195 24 0 53 7 65 15 19 13 22 13 27
0 3 -9 19 -15 41 -15 l35 0 0 155 0 155 -45 0 -45 0 0 -109 c0 -102 -2 -111
-22 -125 -30 -21 -44 -20 -68 4 -17 17 -20 33 -20 125 l0 105 -40 0 -40 0 0
-115z"/>
<path d="M3870 956 c0 -172 0 -175 -22 -182 -26 -8 -38 -22 -38 -46 0 -29 81
-25 117 6 l28 24 3 186 3 186 -45 0 -46 0 0 -174z"/>
<path d="M4020 975 l0 -155 45 0 45 0 0 155 0 155 -45 0 -45 0 0 -155z"/>
<path d="M4373 1111 c-44 -28 -63 -69 -63 -138 0 -100 51 -153 147 -153 52 0
113 29 113 54 0 7 -7 19 -15 26 -13 11 -22 10 -51 -3 -45 -22 -80 -13 -99 24
-28 54 -13 123 31 139 18 7 38 7 65 -2 34 -10 42 -9 57 5 49 50 -115 92 -185
48z"/>
<path d="M4663 1115 c-48 -21 -73 -68 -73 -140 0 -105 52 -155 158 -155 60 0
109 30 134 80 37 72 14 164 -51 207 -40 27 -117 31 -168 8z m121 -66 c22 -18
26 -28 26 -74 0 -46 -4 -56 -26 -74 -33 -26 -55 -26 -85 -2 -20 16 -24 28 -24
76 0 48 4 60 24 76 30 24 52 24 85 -2z"/>
<path d="M4950 975 l0 -155 45 0 45 0 0 115 c0 103 2 115 19 125 27 14 37 13
55 -6 13 -12 16 -39 16 -125 l0 -109 39 0 39 0 4 111 c3 96 6 113 22 125 25
18 41 18 60 -2 13 -12 16 -39 16 -125 l0 -109 40 0 40 0 0 126 c0 125 0 126
-29 155 -23 23 -38 29 -71 29 -44 0 -100 -23 -100 -42 0 -6 -9 1 -21 16 -22
28 -73 35 -111 15 -14 -8 -23 -8 -31 0 -6 6 -26 11 -44 11 l-33 0 0 -155z"/>
</g>
</svg>
