<?xml version="1.0" encoding="utf-8"?>
<!-- Generator: Adobe Illustrator 28.1.0, SVG Export Plug-In . SVG Version: 6.00 Build 0)  -->
<svg version="1.1" id="Layer_1" xmlns="http://www.w3.org/2000/svg" xmlns:xlink="http://www.w3.org/1999/xlink" x="0px" y="0px"
	 viewBox="0 0 769.6 177.8" style="enable-background:new 0 0 769.6 177.8;" xml:space="preserve">
<style type="text/css">
	.st0{enable-background:new    ;}
</style>
<g class="st0">
	<path d="M173.7,65.6h20.9c5.3,0,9.4,1.3,12.4,3.8c3,2.6,4.5,5.8,4.5,9.7c0,5.7-3.3,9.6-10,11.6c3.4,0.5,6.1,2,8.1,4.4
		c2,2.4,3.1,5.2,3.1,8.4c0,4-1.5,7.3-4.6,9.8c-3,2.5-7.2,3.7-12.4,3.7h-22V65.6z M184.1,73.6v13.3h9.4c2.3,0,4.1-0.6,5.5-1.7
		c1.4-1.2,2-2.8,2-4.9c0-2.1-0.7-3.8-2-4.9c-1.4-1.2-3.2-1.8-5.5-1.8H184.1z M184.1,109.1h10.5c2.3,0,4.2-0.6,5.6-1.9
		c1.4-1.3,2.1-3,2.1-5.2c0-2.2-0.7-4-2.1-5.2c-1.4-1.3-3.3-1.9-5.6-1.9h-10.4V109.1z"/>
	<path d="M224.2,111.7c-3.7-4-5.5-9-5.5-15.1c0-6.1,1.8-11.2,5.5-15.1c3.6-3.9,8.3-5.9,13.9-5.9s9.9,2.3,12.8,6.9v-6.3h10.3v40.8
		h-10.3v-6.9c-3.1,5-7.4,7.4-12.9,7.4C232.4,117.7,227.8,115.7,224.2,111.7z M247.6,105.5c2.2-2.1,3.2-5.1,3.2-8.8
		c0-3.7-1.1-6.7-3.2-8.8c-2.2-2.1-4.7-3.2-7.6-3.2c-2.9,0-5.4,1.1-7.6,3.2c-2.1,2.1-3.2,5-3.2,8.8c0,3.7,1.1,6.7,3.2,8.8
		c2.2,2.2,4.7,3.2,7.6,3.2S245.4,107.6,247.6,105.5z"/>
	<path d="M269.9,88.2c0-3.5,1.5-6.5,4.5-8.9c3-2.4,7-3.6,11.9-3.6c5,0,8.9,1.2,11.9,3.6c3,2.4,4.6,5.6,4.8,9.7h-10.6
		c-0.3-3.4-2.4-5.2-6.3-5.2c-2,0-3.5,0.4-4.6,1.2c-1.1,0.8-1.6,1.9-1.6,3.2c0,1.4,0.8,2.5,2.4,3.2c1.6,0.8,3.6,1.4,5.9,1.8
		c2.3,0.4,4.6,1,6.9,1.7c2.3,0.7,4.2,1.8,5.9,3.5c1.6,1.7,2.4,3.9,2.4,6.7c0,3.7-1.6,6.7-4.7,9c-3.1,2.3-7.1,3.5-11.9,3.5
		c-4.8,0-8.8-1.1-11.9-3.4c-3.1-2.3-4.8-5.6-5.1-9.8h10.6c0.4,3.4,2.6,5.2,6.6,5.2c1.9,0,3.5-0.4,4.6-1.3c1.2-0.9,1.8-2,1.8-3.4
		c0-1.4-0.8-2.5-2.4-3.3s-3.6-1.4-5.9-1.9c-2.3-0.4-4.6-1-6.9-1.6c-2.3-0.6-4.2-1.8-5.9-3.4C270.7,93,269.9,90.8,269.9,88.2z"/>
	<path d="M314.9,111.7c-3.7-4-5.5-9-5.5-15.1c0-6.1,1.8-11.2,5.5-15.1c3.6-3.9,8.3-5.9,13.9-5.9s9.9,2.3,12.8,6.9v-6.3h10.3v40.8
		h-10.3v-6.9c-3.1,5-7.4,7.4-12.9,7.4C323.1,117.7,318.5,115.7,314.9,111.7z M338.3,105.5c2.2-2.1,3.2-5.1,3.2-8.8
		c0-3.7-1.1-6.7-3.2-8.8c-2.2-2.1-4.7-3.2-7.6-3.2c-2.9,0-5.4,1.1-7.6,3.2c-2.1,2.1-3.2,5-3.2,8.8c0,3.7,1.1,6.7,3.2,8.8
		c2.2,2.2,4.7,3.2,7.6,3.2S336.1,107.6,338.3,105.5z"/>
	<path d="M395.4,117.1H385V62.5h10.4v31.2l13.8-17.5h14.1l-18.1,20.6l18.1,20.2h-13.9l-14-17V117.1z"/>
	<path d="M439.6,62.5v19.8c2.6-4.5,6.8-6.7,12.7-6.7c4.7,0,8.5,1.5,11.4,4.6c2.9,3.1,4.4,7.3,4.4,12.8v24h-10.3V94.5
		c0-3.2-0.8-5.6-2.4-7.3c-1.6-1.7-3.8-2.5-6.6-2.5s-5,0.8-6.7,2.5c-1.6,1.7-2.5,4.1-2.5,7.3v22.5h-10.4V62.5H439.6z"/>
	<path d="M506.9,76.2h10.4v40.8h-10.4v-6.2c-2.6,4.5-6.9,6.7-12.7,6.7c-4.6,0-8.4-1.5-11.3-4.6c-2.9-3.1-4.4-7.3-4.4-12.8V76.2h10.3
		v22.5c0,3.2,0.8,5.6,2.4,7.4c1.6,1.7,3.8,2.6,6.6,2.6s5-0.9,6.7-2.6c1.6-1.7,2.5-4.2,2.5-7.4V76.2z"/>
	<path d="M528.4,76.2h10.4v47.9c0,4.4-1.1,7.6-3.4,9.5c-2.3,1.9-5.5,2.9-9.7,2.9h-4.6v-8.8h2.9c1.6,0,2.7-0.3,3.3-0.8
		c0.6-0.6,1-1.5,1-2.8V76.2z M539.9,65.9c0,1.8-0.6,3.3-1.8,4.5c-1.2,1.2-2.7,1.8-4.5,1.8c-1.7,0-3.2-0.6-4.5-1.8
		c-1.2-1.2-1.8-2.7-1.8-4.5c0-1.8,0.6-3.3,1.8-4.5c1.2-1.2,2.7-1.8,4.5-1.8c1.7,0,3.2,0.6,4.5,1.8C539.2,62.6,539.9,64.1,539.9,65.9
		z"/>
	<path d="M561.3,65.9c0,1.8-0.6,3.3-1.8,4.5c-1.2,1.2-2.7,1.8-4.5,1.8c-1.7,0-3.2-0.6-4.5-1.8c-1.2-1.2-1.8-2.7-1.8-4.5
		c0-1.8,0.6-3.3,1.8-4.5c1.2-1.2,2.7-1.8,4.5-1.8c1.7,0,3.2,0.6,4.5,1.8C560.7,62.6,561.3,64.1,561.3,65.9z M549.8,117.1V76.2h10.4
		v40.8H549.8z"/>
	<path d="M580.7,111.2c0,1.7-0.6,3.1-1.7,4.2c-1.2,1.1-2.6,1.7-4.2,1.7s-3-0.6-4.2-1.7c-1.1-1.1-1.7-2.5-1.7-4.2
		c0-1.7,0.6-3.1,1.7-4.2c1.1-1.1,2.5-1.7,4.2-1.7s3,0.6,4.2,1.7C580.1,108.1,580.7,109.5,580.7,111.2z"/>
	<path d="M592,111.9c-3.7-3.8-5.6-8.9-5.6-15.3c0-6.3,1.9-11.4,5.6-15.3c3.7-3.8,8.6-5.7,14.5-5.7c5,0,9.1,1.2,12.5,3.6
		c3.3,2.4,5.6,5.8,6.7,10.2h-11.2c-1.3-3.4-4-5.1-8-5.1c-3,0-5.3,1.1-7,3.3c-1.7,2.2-2.5,5.2-2.5,9c0,3.8,0.8,6.8,2.5,9
		c1.7,2.2,4,3.3,7,3.3c3.9,0,6.6-1.7,8-5.2h11.2c-1.2,4.3-3.5,7.7-6.8,10.2c-3.4,2.5-7.5,3.8-12.3,3.8
		C600.6,117.7,595.8,115.7,592,111.9z"/>
	<path d="M636.7,111.8c-4-3.9-6-9-6-15.3c0-6.3,2-11.3,6-15.2c4-3.8,9-5.7,15-5.7s11,1.9,15,5.7c4,3.8,6,8.9,6,15.2
		c0,6.3-2,11.4-6.1,15.3c-4.1,3.9-9.1,5.8-15.1,5.8C645.6,117.7,640.6,115.7,636.7,111.8z M651.6,108.9c2.9,0,5.4-1.1,7.5-3.2
		c2.1-2.1,3.1-5.2,3.1-9.1s-1-6.9-3.1-9c-2.1-2.1-4.6-3.2-7.5-3.2c-2.9,0-5.4,1.1-7.4,3.2c-2,2.1-3,5.1-3,9.1c0,3.9,1,7,3,9.1
		C646.3,107.8,648.7,108.9,651.6,108.9z"/>
	<path d="M691.4,76.2v6.1c2.6-4.5,6.8-6.7,12.7-6.7c3.1,0,5.9,0.7,8.3,2.1c2.4,1.4,4.3,3.5,5.6,6.1c1.4-2.6,3.4-4.6,5.9-6
		c2.5-1.5,5.3-2.2,8.4-2.2c4.9,0,8.8,1.5,11.8,4.6c3,3,4.5,7.3,4.5,12.8v24h-10.3V94.5c0-3.2-0.8-5.6-2.4-7.3
		c-1.6-1.7-3.8-2.5-6.6-2.5s-5,0.8-6.7,2.5c-1.6,1.7-2.5,4.1-2.5,7.3v22.5h-10.3V94.5c0-3.2-0.8-5.6-2.4-7.3
		c-1.6-1.7-3.8-2.5-6.6-2.5s-5,0.8-6.7,2.5c-1.6,1.7-2.5,4.1-2.5,7.3v22.5H681V76.2H691.4z"/>
</g>
<path d="M81.9,82.1H64.7V57.5h17.1c4.3,0,7.5,1.1,10,3.2c2.5,2.1,3.6,5.3,3.6,8.9c0,3.9-1.1,6.8-3.6,8.9
	C89.3,81,86.1,82.1,81.9,82.1z"/>
<path d="M94,100.3c2.5,2.5,3.9,5.7,3.9,9.6c0,3.9-1.4,7.1-3.9,9.6c-2.5,2.5-6.1,3.6-10.3,3.6H64.4v-26h18.9
	C87.9,96.7,91.5,97.8,94,100.3z"/>
<path d="M81.5,20.4c-38.5,0-69.9,31.4-69.9,69.9s31.4,69.9,69.9,69.9S151,128.8,151,90.3S120,20.4,81.5,20.4z M108.6,130.6
	c-5.7,4.6-13.2,6.8-22.8,6.8H45.5V43.2h38.2c9.6,0,17.1,2.5,22.8,7.1c5.3,4.6,8.2,10.7,8.2,17.8c0,10.3-6.1,17.5-18.5,21
	c6.4,0.7,11.1,3.6,15,7.8s5.7,9.6,5.7,15.3C117.2,120.3,114.3,126,108.6,130.6z"/>
</svg>
