<?xml version="1.0" standalone="no"?>
<!DOCTYPE svg PUBLIC "-//W3C//DTD SVG 20010904//EN"
 "http://www.w3.org/TR/2001/REC-SVG-20010904/DTD/svg10.dtd">
<svg version="1.0" xmlns="http://www.w3.org/2000/svg"
 width="141.000000pt" height="151.000000pt" viewBox="0 0 141.000000 151.000000"
 preserveAspectRatio="xMidYMid meet">
<metadata>
Created by potrace 1.16, written by Peter Selinger 2001-2019
</metadata>
<g transform="translate(0.000000,151.000000) scale(0.100000,-0.100000)"
fill="#000000" stroke="none">
<path d="M540 1344 c-215 -56 -390 -233 -445 -449 -19 -76 -19 -224 0 -300 56
-219 231 -394 450 -450 76 -19 224 -19 300 0 219 56 394 231 450 450 19 76 19
224 0 300 -56 219 -231 394 -450 450 -74 19 -232 19 -305 -1z m410 -360 l240
-187 0 -70 0 -69 -37 28 c-21 16 -129 100 -241 187 -124 96 -208 155 -215 150
-10 -6 -102 -76 -464 -356 -10 -7 -13 6 -13 60 l0 70 238 186 c130 102 241
186 245 186 4 1 116 -83 247 -185z m-140 -209 c22 -20 27 -74 10 -105 -12 -23
-61 -40 -116 -40 l-44 0 0 86 0 87 65 -6 c43 -3 73 -11 85 -22z m-290 -230 l0
-245 -85 0 -85 0 0 183 0 183 83 62 c45 34 83 61 85 62 1 0 2 -110 2 -245z
m513 141 l27 -20 0 -183 0 -183 -81 0 -81 0 33 27 c83 70 78 212 -9 254 l-31
15 28 17 c26 15 36 33 55 90 6 19 11 18 59 -17z m-234 -157 c57 -20 70 -88 26
-129 -21 -20 -39 -25 -95 -28 l-70 -4 0 86 0 86 54 0 c29 0 67 -5 85 -11z"/>
</g>
</svg>
